<svg xmlns="http://www.w3.org/2000/svg" viewBox="0 0 24 24" width="32" height="32" fill="#7a28ff">
  <path d="M12 0C5.37 0 0 5.37 0 12c0 5.3 3.438 9.8 8.205 11.385.6.113.82-.263.82-.583 0-.287-.01-1.05-.015-2.06-3.338.724-4.042-1.61-4.042-1.61-.546-1.387-1.333-1.756-1.333-1.756-1.09-.745.082-.73.082-.73 1.205.085 1.84 1.238 1.84 1.238 1.07 1.834 2.807 1.304 3.492.997.107-.774.418-1.304.762-1.603-2.665-.303-5.466-1.332-5.466-5.93 0-1.31.467-2.38 1.235-3.22-.123-.303-.535-1.523.117-3.176 0 0 1.008-.322 3.3 1.23a11.5 11.5 0 0 1 3-.404 11.5 11.5 0 0 1 3 .404c2.29-1.552 3.296-1.23 3.296-1.23.653 1.653.242 2.873.12 3.176.77.84 1.233 1.91 1.233 3.22 0 4.61-2.804 5.625-5.475 5.922.43.37.823 1.102.823 2.222 0 1.606-.015 2.903-.015 3.293 0 .323.217.7.825.58C20.565 21.796 24 17.297 24 12c0-6.63-5.37-12-12-12z"></path>
</svg>
