<svg xmlns="http://www.w3.org/2000/svg" width="48" height="48" viewBox="0 0 48 48" fill="none">
  <rect width="48" height="48" rx="12" fill="#0A66C2"></rect>
  <path d="M16.5 19H12V36H16.5V19ZM14.25 11C12.87 11 11.75 12.12 11.75 13.5C11.75 14.88 12.87 16 14.25 16C15.63 16 16.75 14.88 16.75 13.5C16.75 12.12 15.63 11 14.25 11ZM36 36H31.5V26.25C31.5 23.9 31.45 21 28.25 21C25 21 24.5 23.5 24.5 26.1V36H20V19H24.25V21.6H24.3C24.9 20.5 26.4 19.25 28.65 19.25C33.2 19.25 36 22.05 36 27.1V36Z" fill="white"></path>
</svg>
